<svg version="1.1" viewBox="0 0 96 96" xmlns="http://www.w3.org/2000/svg" xmlns:xlink="http://www.w3.org/1999/xlink" id="Icons_BusinessGrowth" overflow="hidden"><path d=" M 74 51.95 L 84.1 41.85 L 90 47.75 L 90 31.75 L 74 31.75 L 79.9 37.65 L 70 47.55 L 53 64.55 L 38 49.55 L 6.9 80.65 L 11.1 84.85 L 38 57.95 L 53 72.95 L 74 51.95 Z" stroke="none" stroke-width="1" stroke-linecap="butt" fill="#002453" fill-opacity="1"/><circle cx="18" cy="20" r="5" stroke="none" stroke-width="1" stroke-linecap="butt" fill="#002453" fill-opacity="1"/><path d=" M 66.17 45.71 L 67.17 44.71 L 69.46 42.42 L 66.68 29.92 C 66.595 29.4772 66.3536 29.0797 66 28.8 C 64.8023 27.8602 63.4482 27.1392 62 26.67 C 59.3875 25.777 56.5525 25.777 53.94 26.67 C 52.4922 27.1403 51.1383 27.8613 49.94 28.8 C 49.594 29.0864 49.3545 29.4809 49.26 29.92 L 48 35.78 L 48 35.78 L 46.69 29.92 C 46.5983 29.4774 46.3541 29.081 46 28.8 C 44.8023 27.8602 43.4482 27.1392 42 26.67 C 37.8944 25.3449 33.3988 26.1428 30 28.8 C 29.654 29.0864 29.4145 29.4809 29.32 29.92 L 28 35.59 C 28 35.59 28 35.59 28 35.59 L 26.7 29.92 C 26.6002 29.4782 26.3534 29.0833 26 28.8 C 24.8017 27.8613 23.4478 27.1403 22 26.67 C 19.3875 25.777 16.5525 25.777 13.94 26.67 C 12.4931 27.1424 11.1396 27.8632 9.94 28.8 C 9.594 29.0864 9.35448 29.4809 9.26 29.92 L 6.08 44.44 C 5.79511 45.5586 6.47093 46.6963 7.5895 46.9812 C 7.61621 46.988 7.64304 46.9943 7.67 47 C 7.77978 47.0099 7.89022 47.0099 8 47 C 8.95634 47.0223 9.79459 46.3643 10 45.43 L 13 32 L 13 32 L 13 39.1 L 10 54 L 13 54 L 13 68.89 L 17 64.89 L 17 54 L 19 54 L 19 62.89 L 23 58.89 L 23 54 L 26 54 L 23 39.11 L 23 32.11 L 23 32.11 L 26 45.17 C 26.0885 46.2077 26.9586 47.0038 28 47 L 28 47 C 28.9339 46.9938 29.7392 46.3421 29.94 45.43 L 30 45 L 32.92 32.17 C 32.92 32.17 32.92 32.17 32.92 32.17 L 32.92 48.94 L 35.13 46.72 C 36.6912 45.157 39.2239 45.1556 40.7869 46.7169 C 40.7879 46.7179 40.789 46.719 40.79 46.72 L 43 48.85 L 43 32.18 C 43 32.18 43 32.18 43 32.18 L 46 45.44 C 46.2095 46.3703 47.0467 47.0233 48 47 L 48 47 C 48.9377 46.9985 49.7484 46.3457 49.95 45.43 L 52.95 32.17 C 52.95 32.17 52.95 32.17 52.95 32.17 L 52.95 58.87 L 52.95 58.87 L 56.95 54.87 L 56.95 48 L 58.95 48 L 58.95 52.91 L 62.95 48.91 L 62.95 32.18 C 62.95 32.18 62.95 32.18 62.95 32.18 L 66.1 45.72 Z" stroke="none" stroke-width="1" stroke-linecap="butt" fill="#002453" fill-opacity="1"/><circle cx="57.99" cy="20" r="5" stroke="none" stroke-width="1" stroke-linecap="butt" fill="#002453" fill-opacity="1"/><circle cx="37.96" cy="20" r="5" stroke="none" stroke-width="1" stroke-linecap="butt" fill="#002453" fill-opacity="1"/></svg>