<svg version="1.1" viewBox="0 0 96 96" xmlns="http://www.w3.org/2000/svg" xmlns:xlink="http://www.w3.org/1999/xlink" id="Icons_Store" overflow="hidden"><path d=" M 76 44 C 76 46.2 74.2 48 72 48 C 69.8 48 68 46.2 68 44 L 68 40 L 66 20 L 74 20 L 76 40 L 76 44 Z M 60 44 C 60 46.2 58.2 48 56 48 C 53.8 48 52 46.2 52 44 L 52 40 L 51 20 L 59 20 L 60 40 L 60 44 Z M 44 40 L 44 44 C 44 46.2 42.2 48 40 48 C 37.8 48 36 46.2 36 44 L 36 40 L 37 20 L 45 20 L 44 40 Z M 40 72 L 24 72 L 24 56 L 40 56 L 40 72 Z M 20 44 L 20 40 L 22 20 L 30 20 L 28 40 L 28 44 C 28 46.2 26.2 48 24 48 C 21.8 48 20 46.2 20 44 Z M 80 14 L 16 14 L 12 40 L 12 44 C 12 46.2 13.8 48 16 48 L 16 82 L 50 82 L 50 56 L 72 56 L 72 82 L 80 82 L 80 48 C 82.2 48 84 46.2 84 44 L 84 40 L 80 14 Z" stroke="none" stroke-width="1" stroke-linecap="butt" fill="#002453" fill-opacity="1"/></svg>